<svg xmlns="http://www.w3.org/2000/svg" viewBox="0 0 1920 1080" preserveAspectRatio="xMidYMid slice">
  <defs>
    <linearGradient id="skyGradient" x1="0%" y1="0%" x2="0%" y2="100%">
      <stop offset="0%" style="stop-color:#87CEEB;stop-opacity:1" />
      <stop offset="50%" style="stop-color:#B0E0E6;stop-opacity:1" />
      <stop offset="100%" style="stop-color:#E0F6FF;stop-opacity:1" />
    </linearGradient>
    <filter id="cloudShadow" x="-50%" y="-50%" width="200%" height="200%">
      <feDropShadow dx="2" dy="4" stdDeviation="3" flood-color="rgba(0,0,0,0.1)"/>
    </filter>
  </defs>
  
  <!-- Sky background -->
  <rect width="100%" height="100%" fill="url(#skyGradient)"/>
  
  <!-- Large background clouds -->
  <g opacity="0.6">
    <!-- Cloud 1 -->
    <ellipse cx="200" cy="150" rx="80" ry="40" fill="#ffffff" filter="url(#cloudShadow)"/>
    <ellipse cx="250" cy="140" rx="100" ry="50" fill="#ffffff" filter="url(#cloudShadow)"/>
    <ellipse cx="300" cy="155" rx="70" ry="35" fill="#ffffff" filter="url(#cloudShadow)"/>
    
    <!-- Cloud 2 -->
    <ellipse cx="600" cy="200" rx="90" ry="45" fill="#ffffff" filter="url(#cloudShadow)"/>
    <ellipse cx="670" cy="185" rx="110" ry="55" fill="#ffffff" filter="url(#cloudShadow)"/>
    <ellipse cx="740" cy="205" rx="80" ry="40" fill="#ffffff" filter="url(#cloudShadow)"/>
    
    <!-- Cloud 3 -->
    <ellipse cx="1200" cy="120" rx="85" ry="42" fill="#ffffff" filter="url(#cloudShadow)"/>
    <ellipse cx="1280" cy="110" rx="95" ry="48" fill="#ffffff" filter="url(#cloudShadow)"/>
    <ellipse cx="1350" cy="130" rx="75" ry="38" fill="#ffffff" filter="url(#cloudShadow)"/>
  </g>
  
  <!-- Medium clouds -->
  <g opacity="0.8">
    <!-- Cloud 4 -->
    <ellipse cx="400" cy="300" rx="60" ry="30" fill="#ffffff" filter="url(#cloudShadow)"/>
    <ellipse cx="440" cy="290" rx="80" ry="40" fill="#ffffff" filter="url(#cloudShadow)"/>
    <ellipse cx="480" cy="305" rx="55" ry="28" fill="#ffffff" filter="url(#cloudShadow)"/>
    
    <!-- Cloud 5 -->
    <ellipse cx="1000" cy="280" rx="70" ry="35" fill="#ffffff" filter="url(#cloudShadow)"/>
    <ellipse cx="1060" cy="270" rx="90" ry="45" fill="#ffffff" filter="url(#cloudShadow)"/>
    <ellipse cx="1120" cy="285" rx="65" ry="32" fill="#ffffff" filter="url(#cloudShadow)"/>
  </g>
  
  <!-- Foreground clouds with dream elements -->
  <g opacity="0.9">
    <!-- Main dream cloud -->
    <ellipse cx="800" cy="400" rx="120" ry="60" fill="#ffffff" filter="url(#cloudShadow)"/>
    <ellipse cx="900" cy="380" rx="140" ry="70" fill="#ffffff" filter="url(#cloudShadow)"/>
    <ellipse cx="1000" cy="410" rx="100" ry="50" fill="#ffffff" filter="url(#cloudShadow)"/>
    
    <!-- Dream symbols in the cloud -->
    <g transform="translate(850, 390)">
      <!-- Graduation cap -->
      <rect x="-15" y="-5" width="30" height="3" fill="#1976d2" opacity="0.7"/>
      <polygon points="-20,-8 20,-8 15,-15 -15,-15" fill="#1976d2" opacity="0.7"/>
      <circle cx="20" cy="-12" r="2" fill="#1976d2" opacity="0.7"/>
      <line x1="20" y1="-12" x2="25" y2="-18" stroke="#1976d2" stroke-width="1" opacity="0.7"/>
      
      <!-- Airplane -->
      <g transform="translate(40, -20)">
        <path d="M0,0 L15,0 L12,3 L8,3 L5,6 L2,6 Z" fill="#1976d2" opacity="0.6"/>
        <path d="M3,0 L3,-4 L8,-2 Z" fill="#1976d2" opacity="0.6"/>
        <path d="M3,0 L3,4 L8,2 Z" fill="#1976d2" opacity="0.6"/>
      </g>
      
      <!-- Books -->
      <g transform="translate(-40, 10)">
        <rect x="0" y="0" width="12" height="8" fill="#1976d2" opacity="0.5"/>
        <rect x="2" y="-2" width="12" height="8" fill="#2196f3" opacity="0.5"/>
        <rect x="4" y="-4" width="12" height="8" fill="#42a5f5" opacity="0.5"/>
      </g>
    </g>
  </g>
  
  <!-- Additional small clouds -->
  <g opacity="0.7">
    <ellipse cx="100" cy="500" rx="40" ry="20" fill="#ffffff" filter="url(#cloudShadow)"/>
    <ellipse cx="130" cy="495" rx="50" ry="25" fill="#ffffff" filter="url(#cloudShadow)"/>
    
    <ellipse cx="1500" cy="450" rx="45" ry="22" fill="#ffffff" filter="url(#cloudShadow)"/>
    <ellipse cx="1540" cy="445" rx="55" ry="28" fill="#ffffff" filter="url(#cloudShadow)"/>
    
    <ellipse cx="300" cy="600" rx="35" ry="18" fill="#ffffff" filter="url(#cloudShadow)"/>
    <ellipse cx="1600" cy="580" rx="40" ry="20" fill="#ffffff" filter="url(#cloudShadow)"/>
  </g>
  
  <!-- Subtle stars representing dreams -->
  <g opacity="0.4">
    <circle cx="150" cy="80" r="2" fill="#ffffff"/>
    <circle cx="500" cy="60" r="1.5" fill="#ffffff"/>
    <circle cx="800" cy="90" r="2" fill="#ffffff"/>
    <circle cx="1100" cy="70" r="1.5" fill="#ffffff"/>
    <circle cx="1400" cy="85" r="2" fill="#ffffff"/>
    <circle cx="1700" cy="65" r="1.5" fill="#ffffff"/>
  </g>
</svg>